<svg xmlns="http://www.w3.org/2000/svg" viewBox="0 0 360 60" width="360" height="60" role="img" aria-label="Open Omni">
<defs>
<pattern id="shade" width="5" height="5" patternUnits="userSpaceOnUse">
  <rect width="2.5" height="2.5" fill="#e6edf3"/>
  <rect x="2.5" y="2.5" width="2.5" height="2.5" fill="#e6edf3"/>
</pattern>
</defs>
  <rect x="0" y="0" width="10" height="20" fill="#e6edf3"/>
  <rect x="10" y="0" width="10" height="10" fill="#e6edf3"/>
  <rect x="20" y="0" width="10" height="20" fill="#e6edf3"/>
  <rect x="40" y="0" width="10" height="20" fill="#e6edf3"/>
  <rect x="50" y="0" width="10" height="10" fill="#e6edf3"/>
  <rect x="60" y="0" width="10" height="20" fill="#e6edf3"/>
  <rect x="80" y="0" width="10" height="20" fill="#e6edf3"/>
  <rect x="90" y="0" width="10" height="10" fill="#e6edf3"/>
  <rect x="100" y="0" width="10" height="10" fill="#e6edf3"/>
  <rect x="120" y="0" width="10" height="20" fill="#e6edf3"/>
  <rect x="130" y="0" width="10" height="10" fill="#e6edf3"/>
  <rect x="140" y="10" width="10" height="10" fill="#e6edf3"/>
  <rect x="150" y="0" width="10" height="20" fill="#e6edf3"/>
  <rect x="180" y="0" width="10" height="20" fill="#e6edf3"/>
  <rect x="190" y="0" width="10" height="10" fill="#e6edf3"/>
  <rect x="200" y="0" width="10" height="20" fill="#e6edf3"/>
  <rect x="220" y="0" width="10" height="20" fill="#e6edf3"/>
  <rect x="230" y="0" width="10" height="10" fill="#e6edf3"/>
  <rect x="240" y="10" width="10" height="10" fill="#e6edf3"/>
  <rect x="250" y="0" width="10" height="10" fill="#e6edf3"/>
  <rect x="260" y="0" width="10" height="20" fill="#e6edf3"/>
  <rect x="280" y="0" width="10" height="20" fill="#e6edf3"/>
  <rect x="290" y="0" width="10" height="10" fill="#e6edf3"/>
  <rect x="300" y="10" width="10" height="10" fill="#e6edf3"/>
  <rect x="310" y="0" width="10" height="20" fill="#e6edf3"/>
  <rect x="330" y="0" width="10" height="10" fill="#e6edf3"/>
  <rect x="340" y="0" width="10" height="20" fill="#e6edf3"/>
  <rect x="350" y="0" width="10" height="10" fill="#e6edf3"/>
  <rect x="0" y="20" width="10" height="20" fill="#e6edf3"/>
  <rect x="20" y="20" width="10" height="20" fill="url(#shade)"/>
  <rect x="40" y="20" width="10" height="20" fill="#e6edf3"/>
  <rect x="50" y="20" width="10" height="10" fill="#e6edf3"/>
  <rect x="60" y="20" width="10" height="20" fill="url(#shade)"/>
  <rect x="80" y="20" width="10" height="20" fill="#e6edf3"/>
  <rect x="90" y="20" width="10" height="10" fill="#e6edf3"/>
  <rect x="100" y="20" width="10" height="20" fill="url(#shade)"/>
  <rect x="120" y="20" width="10" height="20" fill="#e6edf3"/>
  <rect x="150" y="20" width="10" height="20" fill="url(#shade)"/>
  <rect x="180" y="20" width="10" height="20" fill="#e6edf3"/>
  <rect x="200" y="20" width="10" height="20" fill="url(#shade)"/>
  <rect x="220" y="20" width="10" height="20" fill="#e6edf3"/>
  <rect x="240" y="20" width="10" height="20" fill="url(#shade)"/>
  <rect x="260" y="20" width="10" height="20" fill="#e6edf3"/>
  <rect x="280" y="20" width="10" height="20" fill="#e6edf3"/>
  <rect x="310" y="20" width="10" height="20" fill="url(#shade)"/>
  <rect x="340" y="20" width="10" height="20" fill="url(#shade)"/>
  <rect x="0" y="40" width="10" height="10" fill="#e6edf3"/>
  <rect x="10" y="40" width="10" height="10" fill="#e6edf3"/>
  <rect x="20" y="40" width="10" height="10" fill="#e6edf3"/>
  <rect x="40" y="40" width="10" height="10" fill="#e6edf3"/>
  <rect x="80" y="40" width="10" height="10" fill="#e6edf3"/>
  <rect x="90" y="40" width="10" height="10" fill="#e6edf3"/>
  <rect x="100" y="40" width="10" height="10" fill="#e6edf3"/>
  <rect x="120" y="40" width="10" height="10" fill="#e6edf3"/>
  <rect x="150" y="40" width="10" height="10" fill="#e6edf3"/>
  <rect x="180" y="40" width="10" height="10" fill="#e6edf3"/>
  <rect x="190" y="40" width="10" height="10" fill="#e6edf3"/>
  <rect x="200" y="40" width="10" height="10" fill="#e6edf3"/>
  <rect x="220" y="40" width="10" height="10" fill="#e6edf3"/>
  <rect x="260" y="40" width="10" height="10" fill="#e6edf3"/>
  <rect x="280" y="40" width="10" height="10" fill="#e6edf3"/>
  <rect x="310" y="40" width="10" height="10" fill="#e6edf3"/>
  <rect x="330" y="40" width="10" height="10" fill="#e6edf3"/>
  <rect x="340" y="40" width="10" height="10" fill="#e6edf3"/>
  <rect x="350" y="40" width="10" height="10" fill="#e6edf3"/>
</svg>
